<?xml version="1.0" encoding="UTF-8"?>
<svg version="1.1" xmlns="http://www.w3.org/2000/svg" width="500" height="500">
<path d="M0 0 C165 0 330 0 500 0 C500 165 500 330 500 500 C335 500 170 500 0 500 C0 335 0 170 0 0 Z " fill="#FEFFFF" transform="translate(0,0)"/>
<path d="M0 0 C113.19 0 226.38 0 343 0 C343 29.7 343 59.4 343 90 C229.81 90 116.62 90 0 90 C0 60.3 0 30.6 0 0 Z " fill="#FEFEFE" transform="translate(78,205)"/>
<path d="M0 0 C54.45 0 108.9 0 165 0 C165 25.74 165 51.48 165 78 C110.55 78 56.1 78 0 78 C0 52.26 0 26.52 0 0 Z " fill="#01FFFF" transform="translate(85,211)"/>
<path d="M0 0 C114.84 0 229.68 0 348 0 C348 31.68 348 63.36 348 96 C233.16 96 118.32 96 0 96 C0 64.32 0 32.64 0 0 Z M2 3 C2 32.7 2 62.4 2 93 C115.19 93 228.38 93 345 93 C345 63.3 345 33.6 345 3 C231.81 3 118.62 3 2 3 Z " fill="#02FFFF" transform="translate(76,202)"/>
<path d="M0 0 C2.97 0 5.94 0 9 0 C10.5053109 3.95633425 12.00334593 7.91538367 13.5 11.875 C13.92925781 13.00292969 14.35851562 14.13085938 14.80078125 15.29296875 C15.40986328 16.90751953 15.40986328 16.90751953 16.03125 18.5546875 C16.40830078 19.54968262 16.78535156 20.54467773 17.17382812 21.56982422 C18 24 18 24 18 26 C15.36 26 12.72 26 10 26 C9.67 24.68 9.34 23.36 9 22 C6.03 22.33 3.06 22.66 0 23 C-0.33 23.99 -0.66 24.98 -1 26 C-3.64 26 -6.28 26 -9 26 C-8.38443385 20.11792344 -6.17339219 15.03902565 -3.9375 9.625 C-3.56044922 8.69816406 -3.18339844 7.77132812 -2.79492188 6.81640625 C-1.86873604 4.54197521 -0.93697332 2.27000333 0 0 Z " fill="#080808" transform="translate(342,237)"/>
<path d="M0 0 C5.94 0 11.88 0 18 0 C18 1.98 18 3.96 18 6 C14.37 6 10.74 6 7 6 C7 7.32 7 8.64 7 10 C10.3 10 13.6 10 17 10 C17 11.98 17 13.96 17 16 C14.03 16 11.06 16 8 16 C8 17.32 8 18.64 8 20 C11.3 20 14.6 20 18 20 C18 21.98 18 23.96 18 26 C12.06 26 6.12 26 0 26 C0 17.42 0 8.84 0 0 Z " fill="#040404" transform="translate(312,237)"/>
<path d="M0 0 C2.64 0 5.28 0 8 0 C8 6.27 8 12.54 8 19 C11.3 19 14.6 19 18 19 C18 21.31 18 23.62 18 26 C12.06 26 6.12 26 0 26 C0 17.42 0 8.84 0 0 Z " fill="#070707" transform="translate(290,237)"/>
<path d="M0 0 C1.32 0 2.64 0 4 0 C4 3.63 4 7.26 4 11 C8.29 11 12.58 11 17 11 C17 7.37 17 3.74 17 0 C18.32 0 19.64 0 21 0 C21 8.58 21 17.16 21 26 C20.01 26 19.02 26 18 26 C18 22.04 18 18.08 18 14 C13.38 14 8.76 14 4 14 C4 17.96 4 21.92 4 26 C2.68 26 1.36 26 0 26 C0 17.42 0 8.84 0 0 Z " fill="#E3FFFF" transform="translate(182,236)"/>
<path d="M0 0 C3.5386994 1.65139305 4.81070153 2.71605229 7 6 C7 6.99 7 7.98 7 9 C5.68 9 4.36 9 3 9 C2.34 7.68 1.68 6.36 1 5 C-1.64 5 -4.28 5 -7 5 C-7.33 6.32 -7.66 7.64 -8 9 C-4.79128637 10.64348747 -1.58326165 12.1928579 1.75 13.5625 C5 15 5 15 7 17 C7.4446858 20.40925781 7.36050196 22.34766313 5.6875 25.375 C1.35523054 27.99451176 -3.07728382 27.7469979 -8 27 C-10.6875 25.25 -10.6875 25.25 -12 23 C-12 21.68 -12 20.36 -12 19 C-11.01 19 -10.02 19 -9 19 C-8.5875 19.66 -8.175 20.32 -7.75 21 C-6.04873995 23.40985402 -6.04873995 23.40985402 -2.4375 23.3125 C0.85660211 23.22353201 0.85660211 23.22353201 3 22 C2.95840312 20.06077179 2.95840312 20.06077179 2 18 C-0.69723138 16.48467121 -0.69723138 16.48467121 -3.9375 15.375 C-9.83047619 13.16952381 -9.83047619 13.16952381 -12 11 C-12.4375 7.625 -12.4375 7.625 -12 4 C-8.43754928 -0.21016903 -5.35404223 -0.66925528 0 0 Z " fill="#E8FFFF" transform="translate(166,235)"/>
<path d="M0 0 C0.99 0 1.98 0 3 0 C3.03758423 0.83978394 3.03758423 0.83978394 3.07592773 1.6965332 C3.19203745 4.23541305 3.3146958 6.77393553 3.4375 9.3125 C3.47681641 10.19357422 3.51613281 11.07464844 3.55664062 11.98242188 C3.59853516 12.82998047 3.64042969 13.67753906 3.68359375 14.55078125 C3.73858032 15.72120972 3.73858032 15.72120972 3.79467773 16.9152832 C3.94125263 19.19329101 3.94125263 19.19329101 5 22 C8.3 22 11.6 22 15 22 C15.90833969 19.27498092 16.18359985 17.37766029 16.31640625 14.55078125 C16.35830078 13.70322266 16.40019531 12.85566406 16.44335938 11.98242188 C16.48267578 11.10134766 16.52199219 10.22027344 16.5625 9.3125 C16.60568359 8.41982422 16.64886719 7.52714844 16.69335938 6.60742188 C16.79935353 4.40509892 16.90142051 2.20266527 17 0 C17.99 0 18.98 0 20 0 C20.0875127 3.22899426 20.14056146 6.45768116 20.1875 9.6875 C20.21263672 10.59951172 20.23777344 11.51152344 20.26367188 12.45117188 C20.35702951 21.00895523 20.35702951 21.00895523 17 25 C13.30846481 26.8457676 9.02978061 26.48175083 5 26 C1.90200019 23.80873184 1.19647888 22.58943664 0 19 C-0.0806622 17.51876453 -0.10761193 16.03417796 -0.09765625 14.55078125 C-0.09443359 13.70322266 -0.09121094 12.85566406 -0.08789062 11.98242188 C-0.07951172 11.10134766 -0.07113281 10.22027344 -0.0625 9.3125 C-0.05798828 8.41982422 -0.05347656 7.52714844 -0.04882812 6.60742188 C-0.03704983 4.40488013 -0.02060164 2.20247401 0 0 Z " fill="#F7FFFF" transform="translate(213,236)"/>
<path d="M0 0 C2.5654594 2.5654594 2.54046087 4.47686668 3 8 C1.35 8 -0.3 8 -2 8 C-1.125 2.25 -1.125 2.25 0 0 Z " fill="#D5D5D5" transform="translate(346,246)"/>
</svg>
